<svg width="7.000000" height="9.000000" viewBox="0 0 7 9" fill="none" xmlns="http://www.w3.org/2000/svg" xmlns:xlink="http://www.w3.org/1999/xlink">
	<desc>
			Created with Pixso.
	</desc>
	<defs>
		<linearGradient id="paint_linear_1_316_0" x1="8.424397" y1="4.452631" x2="-0.000001" y2="4.452631" gradientUnits="userSpaceOnUse">
			<stop stop-color="#5C9FF9"/>
			<stop offset="1.000000" stop-color="#0058DC"/>
		</linearGradient>
	</defs>
	<path d="M3.37 0C1.63 0.06 0.18 1.45 0.01 3.24C-0.02 3.59 0 3.94 0.06 4.27C0.06 4.27 0.06 4.31 0.08 4.38C0.14 4.63 0.22 4.87 0.32 5.09C0.67 5.94 1.48 7.37 3.3 8.92C3.41 9.02 3.58 9.02 3.69 8.92C5.51 7.37 6.32 5.95 6.67 5.09C6.78 4.87 6.85 4.63 6.91 4.38C6.92 4.31 6.93 4.27 6.93 4.27C6.97 4.04 7 3.82 7 3.58C7 1.56 5.36 -0.07 3.37 0ZM3.49 5.37C2.56 5.37 1.79 4.59 1.79 3.63C1.79 2.66 2.56 1.88 3.49 1.88C4.43 1.88 5.19 2.66 5.19 3.63C5.19 4.59 4.43 5.37 3.49 5.37Z" fill="#000000" fill-opacity="1.000000" fill-rule="nonzero"/>
	<path d="M3.37 0C1.63 0.06 0.18 1.45 0.01 3.24C-0.02 3.59 0 3.94 0.06 4.27C0.06 4.27 0.06 4.31 0.08 4.38C0.14 4.63 0.22 4.87 0.32 5.09C0.67 5.94 1.48 7.37 3.3 8.92C3.41 9.02 3.58 9.02 3.69 8.92C5.51 7.37 6.32 5.95 6.67 5.09C6.78 4.87 6.85 4.63 6.91 4.38C6.92 4.31 6.93 4.27 6.93 4.27C6.97 4.04 7 3.82 7 3.58C7 1.56 5.36 -0.07 3.37 0ZM3.49 5.37C2.56 5.37 1.79 4.59 1.79 3.63C1.79 2.66 2.56 1.88 3.49 1.88C4.43 1.88 5.19 2.66 5.19 3.63C5.19 4.59 4.43 5.37 3.49 5.37Z" fill="url(#paint_linear_1_316_0)" fill-opacity="1.000000" fill-rule="nonzero"/>
</svg>
