<svg width="73.000000" height="74.000000" viewBox="0 0 73 74" fill="none" xmlns="http://www.w3.org/2000/svg" xmlns:xlink="http://www.w3.org/1999/xlink">
	<desc>
			Created with Pixso.
	</desc>
	<defs/>
	<path d="M36.5 0L30.41 0C17.82 0.01 7.62 10.22 7.6 22.81L7.6 25.37L0.19 38.8C0.06 39.03 0 39.28 0 39.54C-0.01 39.62 -0.01 39.71 0 39.8C0.07 42.24 2.11 44.17 4.56 44.1C5.67 44.16 6.73 44.56 7.6 45.24L7.6 50.18C7.6 50.3 7.6 50.42 7.6 50.53C7.7 53.79 10.42 56.36 13.68 56.27L22.81 56.27C22.9 56.27 22.98 56.27 23.07 56.27C25.52 56.19 27.44 54.15 27.37 51.7L27.37 42.58L24.33 42.58L24.33 51.7C24.34 51.79 24.34 51.89 24.33 51.98C24.25 52.74 23.57 53.3 22.81 53.22L13.68 53.22C13.56 53.23 13.44 53.23 13.32 53.22C11.74 53.12 10.54 51.76 10.64 50.18L10.64 44.51C10.64 44.08 10.46 43.66 10.13 43.37C8.6 41.97 6.63 41.15 4.56 41.06C4.55 41.06 4.55 41.06 4.54 41.06C3.81 41.14 3.15 40.61 3.07 39.87L10.45 26.49C10.58 26.27 10.64 26.01 10.64 25.76L10.64 22.81C10.66 11.9 19.5 3.05 30.41 3.04L36.48 3.04C36.57 3.03 36.66 3.03 36.76 3.04C37.52 3.11 38.09 3.79 38.02 4.56L38.02 12.16L41.06 12.16L41.06 4.56C41.06 4.47 41.06 4.39 41.06 4.3C40.99 1.85 38.94 -0.07 36.5 0Z" fill="#005DE8" fill-opacity="1.000000" fill-rule="nonzero"/>
	<path d="M62.35 45.62L45.62 45.62L45.62 48.66L62.35 48.66C62.44 48.65 62.53 48.65 62.62 48.66C63.39 48.74 63.95 49.42 63.87 50.18L63.87 53.06C63.65 53.97 62.19 59.31 57.79 59.31C56.95 59.31 56.27 59.99 56.27 60.83L56.27 69.95L27.37 69.95L27.37 65.39L24.33 65.39L24.33 71.47C24.33 72.31 25.01 73 25.85 73L57.79 73C58.63 73 59.31 72.31 59.31 71.47L59.31 62.22C64.06 61.32 66.33 56.3 66.88 53.53C66.9 53.43 66.91 53.33 66.91 53.23L66.91 50.18C66.91 50.1 66.91 50.01 66.91 49.92C66.84 47.48 64.8 45.55 62.35 45.62Z" fill="#005DE8" fill-opacity="1.000000" fill-rule="nonzero"/>
	<path d="M71.47 18.25L67.64 18.25C67.48 17.79 67.29 17.35 67.09 16.92L69.8 14.21C70.39 13.61 70.39 12.65 69.8 12.06L65.5 7.75C64.9 7.16 63.94 7.16 63.35 7.75L60.64 10.47C60.2 10.26 59.76 10.08 59.31 9.92L59.31 6.08C59.31 5.24 58.63 4.56 57.79 4.56L51.7 4.56C50.86 4.56 50.18 5.24 50.18 6.08L50.18 9.92C49.35 10.21 48.56 10.58 47.8 11.03L49.35 13.65C50.2 13.14 51.12 12.76 52.08 12.51C52.76 12.34 53.22 11.73 53.22 11.04L53.22 7.6L56.27 7.6L56.27 11.04C56.27 11.73 56.73 12.34 57.4 12.51C58.36 12.76 59.29 13.14 60.14 13.65C60.74 14 61.5 13.9 61.99 13.41L64.42 10.98L66.58 13.13L64.14 15.56C63.65 16.05 63.55 16.81 63.91 17.41C64.41 18.27 64.79 19.19 65.04 20.15C65.22 20.82 65.82 21.29 66.51 21.29L69.95 21.29L69.95 24.33L66.52 24.33C65.82 24.33 65.22 24.8 65.05 25.47C64.8 26.43 64.41 27.35 63.91 28.21C63.56 28.8 63.65 29.57 64.15 30.06L66.58 32.49L64.43 34.64L61.99 32.21C61.5 31.72 60.74 31.62 60.15 31.97C59.29 32.48 58.37 32.86 57.41 33.1C56.74 33.28 56.27 33.88 56.27 34.58L56.27 38.02L53.23 38.02L53.23 34.58C53.23 33.89 52.76 33.28 52.09 33.11C51.12 32.86 50.2 32.48 49.35 31.97C48.75 31.62 47.99 31.72 47.5 32.21L45.07 34.64L42.91 32.49L45.35 30.06C45.84 29.57 45.94 28.81 45.58 28.21C45.08 27.35 44.7 26.43 44.45 25.47C44.27 24.8 43.67 24.33 42.98 24.33L38.02 24.33L38.02 27.37L41.85 27.37C42.01 27.82 42.2 28.27 42.4 28.7L39.69 31.41C39.1 32.01 39.1 32.97 39.69 33.56L43.99 37.86C44.59 38.46 45.55 38.46 46.14 37.86L48.86 35.15C49.29 35.36 49.73 35.54 50.18 35.7L50.18 39.54C50.18 40.38 50.86 41.06 51.7 41.06L57.79 41.06C58.63 41.06 59.31 40.38 59.31 39.54L59.31 35.7C59.76 35.54 60.2 35.36 60.64 35.15L63.35 37.86C63.94 38.46 64.9 38.46 65.5 37.86L69.8 33.56C70.39 32.97 70.39 32.01 69.8 31.41L67.09 28.7C67.29 28.27 67.48 27.82 67.64 27.37L71.47 27.37C72.31 27.37 72.99 26.69 72.99 25.85L72.99 19.77C72.99 18.93 72.31 18.25 71.47 18.25Z" fill="#005DE8" fill-opacity="1.000000" fill-rule="nonzero"/>
	<path d="M54.75 16.73C51.39 16.73 48.66 19.45 48.66 22.81C48.66 26.17 51.39 28.89 54.75 28.89C58.1 28.89 60.83 26.17 60.83 22.81C60.83 19.45 58.11 16.73 54.75 16.73ZM54.75 25.85C53.07 25.85 51.7 24.49 51.7 22.81C51.7 21.13 53.07 19.77 54.75 19.77C56.43 19.77 57.79 21.13 57.79 22.81C57.79 24.49 56.43 25.85 54.75 25.85Z" fill="#005DE8" fill-opacity="1.000000" fill-rule="nonzero"/>
	<path d="M22.81 24.33L22.81 25.85L18.25 25.85L18.25 24.33L15.2 24.33L15.2 25.85C15.2 25.89 15.2 25.93 15.2 25.98C15.24 27.62 16.6 28.93 18.25 28.89L22.81 28.89C22.85 28.89 22.89 28.89 22.93 28.89C24.58 28.86 25.88 27.5 25.85 25.85L25.85 24.33L22.81 24.33Z" fill="#005DE8" fill-opacity="1.000000" fill-rule="nonzero"/>
	<path d="M42.58 42.58C40.06 42.58 38.02 44.62 38.02 47.14C38.02 49.66 40.06 51.7 42.58 51.7C45.1 51.7 47.14 49.66 47.14 47.14C47.14 44.62 45.1 42.58 42.58 42.58ZM42.58 48.66C41.74 48.66 41.06 47.98 41.06 47.14C41.06 46.3 41.74 45.62 42.58 45.62C43.42 45.62 44.1 46.3 44.1 47.14C44.1 47.98 43.42 48.66 42.58 48.66Z" fill="#005DE8" fill-opacity="1.000000" fill-rule="nonzero"/>
	<path d="M25.85 34.98C23.33 34.98 21.29 37.02 21.29 39.54C21.29 42.06 23.33 44.1 25.85 44.1C28.37 44.1 30.41 42.06 30.41 39.54C30.41 37.02 28.37 34.98 25.85 34.98ZM25.85 41.06C25.01 41.06 24.33 40.38 24.33 39.54C24.33 38.7 25.01 38.02 25.85 38.02C26.69 38.02 27.37 38.7 27.37 39.54C27.37 40.38 26.69 41.06 25.85 41.06Z" fill="#005DE8" fill-opacity="1.000000" fill-rule="nonzero"/>
	<path d="M39.54 16.64C37.02 16.64 34.98 18.69 34.98 21.2C34.98 23.72 37.02 25.77 39.54 25.77C42.06 25.77 44.1 23.72 44.1 21.2C44.1 18.69 42.06 16.64 39.54 16.64ZM39.54 22.73C38.7 22.73 38.02 22.04 38.02 21.2C38.02 20.36 38.7 19.68 39.54 19.68C40.38 19.68 41.06 20.36 41.06 21.2C41.06 22.04 40.38 22.73 39.54 22.73Z" fill="#005DE8" fill-opacity="1.000000" fill-rule="nonzero"/>
	<path d="M31.93 24.33L34.98 24.33L34.98 27.37L31.93 27.37L31.93 24.33Z" fill="#005DE8" fill-opacity="1.000000" fill-rule="evenodd"/>
	<path d="M31.93 30.41L34.98 30.41L34.98 33.45L31.93 33.45L31.93 30.41Z" fill="#005DE8" fill-opacity="1.000000" fill-rule="evenodd"/>
	<path d="M24.33 59.31L27.37 59.31L27.37 62.35L24.33 62.35L24.33 59.31Z" fill="#005DE8" fill-opacity="1.000000" fill-rule="evenodd"/>
</svg>
