<svg width="73.000000" height="76.000000" viewBox="0 0 73 76" fill="none" xmlns="http://www.w3.org/2000/svg" xmlns:xlink="http://www.w3.org/1999/xlink">
	<desc>
			Created with Pixso.
	</desc>
	<defs/>
	<path d="M61.11 20.3L37.14 6.51C36.74 6.28 36.25 6.28 35.85 6.51L11.88 20.3C11.48 20.53 11.24 20.95 11.24 21.41L11.24 49.55C11.24 50.01 11.49 50.44 11.88 50.67L35.85 64.47C36.05 64.58 36.27 64.64 36.49 64.64C36.72 64.64 36.94 64.58 37.14 64.47L61.11 50.68C61.5 50.45 61.75 50.02 61.75 49.56L61.75 21.41C61.75 20.95 61.5 20.53 61.11 20.3ZM35.2 61.13L13.82 48.81L13.81 23.63L35.21 35.94L35.2 61.13ZM36.49 33.72L15.1 21.41L36.49 9.1L57.89 21.41L36.49 33.72ZM37.78 61.13L37.78 35.94L59.17 23.63L59.17 48.82L59.17 48.82L37.78 61.13Z" fill="#005DE8" fill-opacity="1.000000" fill-rule="nonzero"/>
	<path d="M72.82 14.33C72.47 13.72 71.68 13.51 71.06 13.86L66.44 16.52C60.18 6.6 49.1 0 36.49 0C23.89 0 12.81 6.6 6.55 16.52L1.93 13.86C1.31 13.51 0.52 13.72 0.17 14.33C-0.19 14.94 0.02 15.73 0.64 16.08L5.26 18.74C2.63 23.67 1.14 29.28 1.14 35.23C1.14 54.23 16.3 69.77 35.2 70.45L35.2 74.71C35.2 75.42 35.78 76 36.49 76C37.2 76 37.78 75.42 37.78 74.71L37.78 70.45C56.68 69.77 71.85 54.24 71.85 35.23C71.85 29.28 70.36 23.67 67.73 18.74L72.35 16.08C72.97 15.73 73.18 14.94 72.82 14.33ZM69.28 35.23C69.28 53.25 54.57 67.9 36.49 67.9C18.42 67.9 3.71 53.25 3.71 35.23C3.71 17.22 18.42 2.56 36.49 2.56C54.57 2.56 69.28 17.22 69.28 35.23Z" fill="#005DE8" fill-opacity="1.000000" fill-rule="nonzero"/>
</svg>
