<svg width="71.000000" height="73.000000" viewBox="0 0 71 73" fill="none" xmlns="http://www.w3.org/2000/svg" xmlns:xlink="http://www.w3.org/1999/xlink">
	<desc>
			Created with Pixso.
	</desc>
	<defs/>
	<path d="M65.91 57.06L65.91 25.04C65.91 23.14 64.36 21.6 62.45 21.6C60.54 21.6 58.98 23.14 58.98 25.04L58.98 57.67C57.74 58.43 56.75 59.52 56.1 60.81L38.81 60.81L38.81 49.55C38.81 47.65 37.25 46.11 35.34 46.11C33.43 46.11 31.88 47.65 31.88 49.55L31.88 60.81L14.74 60.81C13.96 59.25 12.67 58 11.08 57.26L11.08 40.13L19.94 40.13C21.85 40.13 23.41 38.59 23.41 36.68C23.41 34.78 21.85 33.24 19.94 33.24L11.08 33.24L11.08 17.18C12.61 16.47 13.87 15.27 14.66 13.78L44.58 13.78C46.49 13.78 48.05 12.24 48.05 10.34C48.05 8.43 46.49 6.89 44.58 6.89L14.81 6.89C13.54 4.2 10.81 2.45 7.77 2.45C3.48 2.45 0 5.92 0 10.18C0 13.09 1.6 15.7 4.15 17.03L4.15 57.41C1.6 58.74 0 61.35 0 64.26C0 68.52 3.48 72 7.77 72C10.73 72 13.43 70.3 14.74 67.71L56.1 67.71C57.4 70.3 60.11 72 63.06 72C67.35 72 70.84 68.52 70.84 64.26C70.84 61.05 68.85 58.21 65.91 57.06ZM15.49 9.19L44.58 9.19C45.22 9.19 45.74 9.7 45.74 10.34C45.74 10.97 45.22 11.48 44.58 11.48L15.44 11.48C15.51 11.06 15.55 10.62 15.55 10.18C15.55 9.85 15.53 9.52 15.49 9.19ZM19.94 35.54C20.58 35.54 21.09 36.05 21.09 36.68C21.09 37.32 20.58 37.83 19.94 37.83L9.93 37.83C9.29 37.83 8.77 38.35 8.77 38.98L8.77 56.59C8.44 56.54 8.11 56.52 7.77 56.52C7.33 56.52 6.89 56.56 6.46 56.63L6.46 17.81C6.89 17.88 7.33 17.92 7.77 17.92C8.11 17.92 8.44 17.9 8.77 17.85L8.77 34.39C8.77 35.02 9.29 35.54 9.93 35.54L19.94 35.54L19.94 35.54ZM2.31 10.18C2.31 7.18 4.76 4.74 7.77 4.74C10.11 4.74 12.18 6.22 12.94 8.41C13.14 8.98 13.24 9.58 13.24 10.18C13.24 10.88 13.11 11.56 12.85 12.21L12.85 12.21C12.26 13.67 11.05 14.81 9.55 15.32C8.98 15.52 8.38 15.62 7.77 15.62C7.07 15.62 6.39 15.49 5.74 15.23C5.74 15.23 5.74 15.23 5.74 15.23C3.65 14.4 2.31 12.42 2.31 10.18ZM12.9 66.16C12.9 66.16 12.9 66.16 12.9 66.16C12.1 68.27 10.05 69.7 7.77 69.7C4.76 69.7 2.31 67.26 2.31 64.26C2.31 62.03 3.65 60.04 5.74 59.21C5.74 59.21 5.74 59.21 5.74 59.21C6.39 58.95 7.07 58.82 7.77 58.82C8.38 58.82 8.98 58.92 9.55 59.12C11.11 59.65 12.32 60.83 12.9 62.36C13.13 62.97 13.24 63.61 13.24 64.26C13.24 64.91 13.13 65.55 12.9 66.16ZM55.37 65.41L15.46 65.41C15.52 65.03 15.55 64.65 15.55 64.26C15.55 63.87 15.52 63.49 15.46 63.11L33.03 63.11C33.67 63.11 34.19 62.6 34.19 61.96L34.19 49.55C34.19 48.92 34.7 48.4 35.34 48.4C35.98 48.4 36.5 48.92 36.5 49.55L36.5 61.96C36.5 62.6 37.01 63.11 37.65 63.11L55.37 63.11C55.32 63.49 55.29 63.87 55.29 64.26C55.29 64.65 55.32 65.03 55.37 65.41ZM61.29 25.04C61.29 24.41 61.81 23.89 62.45 23.89C63.08 23.89 63.6 24.41 63.6 25.04L63.6 56.54C63.42 56.53 63.24 56.52 63.06 56.52C62.46 56.52 61.87 56.59 61.29 56.72L61.29 25.04L61.29 25.04ZM63.06 69.7C60.79 69.7 58.73 68.27 57.94 66.16C57.94 66.16 57.94 66.16 57.94 66.16C57.71 65.55 57.6 64.91 57.6 64.26C57.6 63.61 57.71 62.97 57.94 62.36C58.43 61.06 59.39 60 60.65 59.38C61.4 59.01 62.22 58.82 63.06 58.82C63.54 58.82 64.01 58.88 64.46 59C66.86 59.63 68.53 61.79 68.53 64.26C68.53 67.26 66.08 69.7 63.06 69.7Z" fill="#FFFFFF" fill-opacity="1.000000" fill-rule="nonzero"/>
	<path d="M70.66 6.4L64.56 0.33C64.34 0.12 64.05 0 63.74 0C63.43 0 63.14 0.12 62.92 0.33L35.16 27.96L29.06 34.03C29.05 34.04 29.05 34.04 29.04 34.05C29.02 34.07 29.01 34.09 28.99 34.11C28.98 34.11 28.98 34.12 28.97 34.13C28.97 34.13 28.96 34.14 28.96 34.14C28.95 34.16 28.93 34.18 28.92 34.19C28.91 34.21 28.91 34.22 28.9 34.23C28.9 34.24 28.89 34.24 28.89 34.25C28.88 34.26 28.87 34.27 28.87 34.29C28.86 34.3 28.85 34.32 28.84 34.34C28.83 34.35 28.83 34.35 28.83 34.36C28.82 34.37 28.82 34.38 28.82 34.39C28.81 34.41 28.8 34.43 28.79 34.45C28.79 34.46 28.78 34.47 28.78 34.48L27.25 39.03L25.82 43.3L24.11 45C23.66 45.45 23.66 46.18 24.11 46.63C24.34 46.85 24.63 46.96 24.93 46.96C25.23 46.96 25.52 46.85 25.75 46.63L27.43 44.95L36.34 42C36.35 42 36.36 41.99 36.37 41.99C36.39 41.98 36.41 41.97 36.43 41.96C36.44 41.96 36.45 41.96 36.46 41.95C36.47 41.95 36.47 41.94 36.48 41.94C36.5 41.93 36.51 41.92 36.53 41.91C36.55 41.91 36.56 41.9 36.57 41.89C36.58 41.89 36.58 41.88 36.59 41.88C36.6 41.87 36.61 41.86 36.63 41.86C36.64 41.84 36.66 41.83 36.68 41.82C36.68 41.82 36.69 41.81 36.7 41.81C36.7 41.8 36.71 41.79 36.72 41.79C36.73 41.77 36.75 41.76 36.77 41.74C36.78 41.73 36.78 41.73 36.79 41.72L52.04 26.56C52.06 26.54 52.08 26.51 52.1 26.49L70.66 8.02C71.11 7.57 71.11 6.85 70.66 6.4ZM28.65 42.13L29.45 39.76L30.38 36.97L33.84 40.41L28.65 42.13ZM50.4 24.93C50.38 24.95 50.36 24.97 50.34 24.99L35.97 39.28L31.51 34.84L36.8 29.58L63.74 2.77L68.21 7.21L50.4 24.93Z" fill="#FFFFFF" fill-opacity="1.000000" fill-rule="nonzero"/>
</svg>
