<svg width="70.000000" height="70.000000" viewBox="0 0 70 70" fill="none" xmlns="http://www.w3.org/2000/svg" xmlns:xlink="http://www.w3.org/1999/xlink">
	<desc>
			Created with Pixso.
	</desc>
	<defs/>
	<path d="M33.83 58.33L36.16 58.33L36.16 60.66L33.83 60.66L33.83 58.33Z" fill="#005DE8" fill-opacity="1.000000" fill-rule="evenodd"/>
	<path d="M68.83 60.66L67.66 60.66L67.66 18.66C67.66 16.08 65.57 14 63 14L56 14L56 4.66C56 2.08 53.91 0 51.33 0L18.66 0C16.08 0 14 2.08 14 4.66L14 14L7 14C4.42 14 2.33 16.08 2.33 18.66L2.33 60.66L1.16 60.66C0.52 60.66 0 61.18 0 61.83L0 65.33C0 67.91 2.08 70 4.66 70L65.33 70C67.91 70 70 67.91 70 65.33L70 61.83C70 61.18 69.47 60.66 68.83 60.66ZM16.33 4.66C16.33 3.37 17.37 2.33 18.66 2.33L51.33 2.33C52.62 2.33 53.66 3.37 53.66 4.66L53.66 9.33L16.33 9.33L16.33 4.66ZM16.33 11.66L53.66 11.66L53.66 45.5C53.66 46.78 52.62 47.83 51.33 47.83L18.66 47.83C17.37 47.83 16.33 46.78 16.33 45.5L16.33 11.66ZM18.66 50.16L51.33 50.16C53.91 50.16 56 48.07 56 45.5L56 21L60.66 21L60.66 53.66L9.33 53.66L9.33 21L14 21L14 45.5C14 48.07 16.08 50.16 18.66 50.16ZM4.66 18.66C4.66 17.37 5.71 16.33 7 16.33L14 16.33L14 18.66L8.16 18.66C7.52 18.66 7 19.18 7 19.83L7 54.83C7 55.47 7.52 56 8.16 56L61.83 56C62.47 56 63 55.47 63 54.83L63 19.83C63 19.18 62.47 18.66 61.83 18.66L56 18.66L56 16.33L63 16.33C64.28 16.33 65.33 17.37 65.33 18.66L65.33 60.66L45.5 60.66C45.19 60.66 44.89 60.78 44.67 61L42.68 63L27.31 63L25.32 61C25.1 60.78 24.8 60.66 24.5 60.66L4.66 60.66L4.66 18.66ZM67.66 65.33C67.66 66.62 66.62 67.66 65.33 67.66L4.66 67.66C3.37 67.66 2.33 66.62 2.33 65.33L2.33 63L24.01 63L26 64.99C26.22 65.21 26.52 65.33 26.83 65.33L43.16 65.33C43.47 65.33 43.77 65.21 43.99 64.99L45.98 63L67.66 63L67.66 65.33Z" fill="#005DE8" fill-opacity="1.000000" fill-rule="nonzero"/>
	<path d="M19.83 37.33L50.16 37.33L50.16 39.66L19.83 39.66L19.83 37.33Z" fill="#005DE8" fill-opacity="1.000000" fill-rule="evenodd"/>
	<path d="M19.83 42L47.83 42L47.83 44.33L19.83 44.33L19.83 42Z" fill="#005DE8" fill-opacity="1.000000" fill-rule="evenodd"/>
	<path d="M26.83 32.66L50.16 32.66L50.16 34.99L26.83 34.99L26.83 32.66Z" fill="#005DE8" fill-opacity="1.000000" fill-rule="evenodd"/>
	<path d="M18.66 10.66L21 10.66L21 13L18.66 13L18.66 10.66Z" fill="#005DE8" fill-opacity="1.000000" fill-rule="evenodd"/>
	<path d="M23.33 10.66L25.66 10.66L25.66 13L23.33 13L23.33 10.66Z" fill="#005DE8" fill-opacity="1.000000" fill-rule="evenodd"/>
	<path d="M27.99 10.66L30.33 10.66L30.33 13L27.99 13L27.99 10.66Z" fill="#005DE8" fill-opacity="1.000000" fill-rule="evenodd"/>
	<path d="M22.16 32.66L24.5 32.66L24.5 34.99L22.16 34.99L22.16 32.66Z" fill="#005DE8" fill-opacity="1.000000" fill-rule="evenodd"/>
	<path d="M31.03 19.6L29.63 17.73L24.96 21.23C24.45 21.62 24.34 22.35 24.73 22.86C24.79 22.95 24.87 23.03 24.96 23.1L29.63 26.6L31.03 24.73L27.61 22.16L31.03 19.6Z" fill="#005DE8" fill-opacity="1.000000" fill-rule="nonzero"/>
	<path d="M45.26 21.46C45.2 21.37 45.12 21.3 45.03 21.23L40.36 17.73L38.96 19.6L42.38 22.16L38.96 24.73L40.36 26.6L45.03 23.1C45.54 22.71 45.65 21.98 45.26 21.46Z" fill="#005DE8" fill-opacity="1.000000" fill-rule="nonzero"/>
	<path d="M31.58 27.56L36.25 15.9L38.41 16.76L33.74 28.43L31.58 27.56Z" fill="#005DE8" fill-opacity="1.000000" fill-rule="evenodd"/>
</svg>
